<svg id="Layer_1" data-name="Layer 1" xmlns="http://www.w3.org/2000/svg" viewBox="0 0 100 15.67"><defs><style>.cls-1{fill:#c60e1b;}.cls-2{fill:#c60d1a;}.cls-3{fill:#c70e1b;}.cls-4{fill:#f0f0f1;}.cls-5{fill:#f0f1f1;}.cls-6{fill:#eee;}.cls-7{fill:#f0f0f0;}.cls-8{fill:#fefefe;}.cls-9{fill:#f1f1f1;}.cls-10{fill:#cc0e1b;}</style></defs><title>red ginger</title><path class="cls-1" d="M16.09,8.61c2.47,0,4.94,0,7.41,0,1.18,0,1.53-.33,1.22-1.5a5.06,5.06,0,0,0-3.8-3.94,6,6,0,0,0-6.18,1.63,6.46,6.46,0,0,0-.84,5.82,1.32,1.32,0,0,0,1,1.58,7.24,7.24,0,0,0,6,1.61l2.35-1.25c.61-.22,1.17-.47,1-1.28,0-.43.57-.83,0-1.38L23,11.64c-.53.24-1.11.37-1.65.59A4.78,4.78,0,0,1,16,11.44a8.57,8.57,0,0,0-1.2-.79C14,8.62,14,8.62,16.09,8.61Zm-1.54-2a4.76,4.76,0,0,1,4.68-3,4.71,4.71,0,0,1,4.65,3.06c.3.93,0,1.24-1,1.2-1.29-.06-2.58,0-3.87,0h0c-1.19,0-2.37,0-3.55,0C14.53,7.88,14.24,7.56,14.55,6.62Z"/><path class="cls-2" d="M77.94,8.59c2.42.05,4.84,0,7.27,0,2.06,0,2.34-.42,1.57-2.38A5.55,5.55,0,0,0,80.42,3C77.35,3.68,75.83,5.71,76,9a5.27,5.27,0,0,0,4.9,4.89c2.57.29,5.94-1.08,6-4-.66.16-.67.66-.86,1-1,2-2.86,2.48-4.91,2.32a4.54,4.54,0,0,1-4.18-3C76.47,9.06,76.64,8.55,77.94,8.59Zm-1.07-1.9a5.1,5.1,0,0,1,9.33-.1c.35,1,0,1.27-.92,1.25-1.29,0-2.58,0-3.87,0s-2.47,0-3.71,0C76.82,7.85,76.55,7.59,76.87,6.69Z"/><path class="cls-3" d="M31.44,2.88c-1.29,0-2.58.07-3.86,0-1.09-.07-1.39.34-1.37,1.37,0,2.46,0,4.92,0,7.38a1.1,1.1,0,0,0,0,1.61l.32.38c2.7-.16,5.42.29,8.09-.35l1.56-1.1A17.3,17.3,0,0,0,37,9.91C37.89,5.8,35.58,2.89,31.44,2.88ZM36,10.44a3.17,3.17,0,0,1-3.07,2.43c-1.61.1-3.23.05-4.84.09-.79,0-1-.37-1-1.08,0-2.42,0-4.83,0-7.24,0-.85.32-1.15,1.14-1.1s1.5,0,2.26,0c.27,0,.54,0,.81,0C36,3.18,36.92,6.76,36,10.44Z"/><path class="cls-4" d="M48.83,13.55c-1.15-.28-.16-1.32-.8-1.92A5.49,5.49,0,0,1,44,13.87a6.76,6.76,0,0,1-4.52-1.67,6.45,6.45,0,0,1-1.29-4.06,5.18,5.18,0,0,1,4.08-5c2.79-.6,5,.2,6,2.22.16.31.45.62.14,1-.34,0-.45-.14-.6-.4A4.74,4.74,0,0,0,41,4.27a5.09,5.09,0,0,0-1.4,6.85,5.1,5.1,0,0,0,6.74,1.42,3.77,3.77,0,0,0,1.18-1.3C48.62,9.39,48.42,9,46.3,9H44.06l0-.53,4.73-.09a14,14,0,0,1,.08,5.13Z"/><path class="cls-5" d="M74.31,6.38c-.33.08-.43-.13-.58-.39A4.69,4.69,0,0,0,67.12,4.2,5.06,5.06,0,0,0,65.46,11a5,5,0,0,0,6.65,1.64,3.89,3.89,0,0,0,1.17-1.08c.47-.65,1-1.48.7-2.21S72.75,9.1,72.1,9A10.07,10.07,0,0,1,70,8.83c1.43-.62,2.91-.34,4.36-.39.33,0,.44.27.44.55v4.95C74,13,74.38,12.31,74,11.66a5.75,5.75,0,0,1-3.86,2.19,5.94,5.94,0,0,1-4.22-1.26,5.52,5.52,0,0,1-1.35-6.45A5.39,5.39,0,0,1,70.38,3C72.85,3.35,74.08,4.41,74.31,6.38Z"/><path class="cls-6" d="M98,4.91c-.62-1.69-2.17-1.69-3.64-1.71s-3.24,0-4.85,0c-.88,0-1.21.2-1.19,1.14.06,2.79,0,5.58,0,8.37,0,.32-.18.79.52.87A11.33,11.33,0,0,0,89,10c0-.84.27-1.14,1.11-1.11,2,.07,4,.06,6,.08a.44.44,0,0,0,.34-.26C97.7,7.73,98.6,6.56,98,4.91ZM95.37,8.17c-1,.12-2,.14-3.05.2C88.9,8.31,88.93,8.31,89,4.92c0-.8.18-1.15,1.07-1.12,1.66.07,3.33,0,5,0,1.23,0,2.28.39,2.39,1.83A2.13,2.13,0,0,1,95.37,8.17Z"/><path class="cls-7" d="M62.42,13.56c0-2.11,0-4.21,0-6.32,0-2.48-1-3.55-3.46-3.69-2.67-.15-4.45,1.08-4.64,3.37-.14,1.71-.06,3.44-.09,5.16a2.11,2.11,0,0,1-.29,1.55c-.44-1.21-.52-8.57-.16-10.35.86.05.13,1,.71,1.2a5.82,5.82,0,0,1,6.09-1.3,2.89,2.89,0,0,1,2.35,2.57c.15,2.6,0,5.2,0,7.8Z"/><path class="cls-8" d="M51.37,13.46c-.66.2-.7-.21-.69-.68l.09-9.56c.94.06.54.78.55,1.21C51.36,7.44,51.36,10.45,51.37,13.46Z"/><path class="cls-9" d="M96.09,9l.34-.26c1.69.4,1.68,1.74,1.58,3,0,.6.62,1.67-.21,1.71s-.38-1.13-.41-1.77C97.32,10.55,97.28,9.49,96.09,9Z"/><path class="cls-10" d="M12.24,10.62a2.41,2.41,0,0,0-1.74-2l.55-.5a2.89,2.89,0,0,0,1-3.45c-.49-1.32-1.73-1.47-2.95-1.47-2.05,0-4.1,0-6.15,0-.85,0-1.11.3-1.1,1.13,0,2.84,0,5.69,0,8.54,0,.28-.11.68.48.74.38-1.13.09-2.3.19-3.44,0-.45-.15-1.14.55-1.12,2.51.08,5-.49,7.51.32.72.32.68,1,.68,1.58,0,.32.09.65.14,1s.06.86.08,1.29.43.35.72.32l0-1.61A1,1,0,0,0,12.24,10.62ZM3.08,8.33c-.41,0-.51-.32-.51-.67,0-1,0-2,0-3.06,0-.68.42-.77.95-.77H6.58v0c1,0,2.05-.06,3.07,0a1.89,1.89,0,0,1,1.93,1.8,2,2,0,0,1-1.43,2.39C7.82,8.71,5.44,8.27,3.08,8.33Z"/></svg>